<?xml version="1.0" encoding="utf-8"?>
<!-- Generator: Adobe Illustrator 16.0.0, SVG Export Plug-In . SVG Version: 6.00 Build 0)  -->
<!DOCTYPE svg PUBLIC "-//W3C//DTD SVG 1.1//EN" "http://www.w3.org/Graphics/SVG/1.1/DTD/svg11.dtd">
<svg version="1.1" id="Layer_1" xmlns="http://www.w3.org/2000/svg" xmlns:xlink="http://www.w3.org/1999/xlink" x="0px" y="0px"
	 width="840px" height="519px" viewBox="0 0 840 519" enable-background="new 0 0 840 519" xml:space="preserve">
<rect id="room" fill="#FFFFFF" stroke="#000000" stroke-miterlimit="10" width="840" height="519"/>
<rect id="entrance" x="35" y="455" fill="#FFFFFF" stroke="#000000" stroke-miterlimit="10" width="180" height="64"/>
<rect id="table1" x="91" y="140" fill="#FFFFFF" stroke="#000000" stroke-miterlimit="10" width="124" height="186"/>
<rect id="bookshelf_1_" x="315" y="51" fill="#FFFFFF" stroke="#000000" stroke-miterlimit="10" width="86" height="388"/>
<rect id="bookshelf" x="454" y="51" fill="#FFFFFF" stroke="#000000" stroke-miterlimit="10" width="85" height="388"/>
<g id="table1seats">
	<rect id="seat1_1_" x="133" y="96" fill="#FFFFFF" stroke="#000000" stroke-miterlimit="10" width="40" height="40"/>
	<rect id="seat2_1_" x="220" y="171" fill="#FFFFFF" stroke="#000000" stroke-miterlimit="10" width="40" height="40"/>
	<rect id="seat3_1_" x="220" y="241" fill="#FFFFFF" stroke="#000000" stroke-miterlimit="10" width="40" height="40"/>
	<rect id="seat6_1_" x="46" y="171" fill="#FFFFFF" stroke="#000000" stroke-miterlimit="10" width="40" height="40"/>
	<rect id="seat5_1_" x="46" y="241" fill="#FFFFFF" stroke="#000000" stroke-miterlimit="10" width="40" height="40"/>
	<rect id="seat4_1_" x="133" y="330" fill="#FFFFFF" stroke="#000000" stroke-miterlimit="10" width="40" height="40"/>
</g>
<rect id="table2" x="627" y="142" fill="#FFFFFF" stroke="#000000" stroke-miterlimit="10" width="124" height="186"/>
<g id="table2seats">
	<rect id="seat1" x="669" y="98" fill="#FFFFFF" stroke="#000000" stroke-miterlimit="10" width="40" height="40"/>
	<rect id="seat2" x="756" y="174" fill="#FFFFFF" stroke="#000000" stroke-miterlimit="10" width="40" height="40"/>
	<rect id="seat3" x="756" y="244" fill="#FFFFFF" stroke="#000000" stroke-miterlimit="10" width="40" height="40"/>
	<rect id="seat6" x="582" y="173" fill="#FFFFFF" stroke="#000000" stroke-miterlimit="10" width="40" height="40"/>
	<rect id="seat5" x="582" y="243" fill="#FFFFFF" stroke="#000000" stroke-miterlimit="10" width="40" height="40"/>
	<rect id="seat4" x="669" y="334" fill="#FFFFFF" stroke="#000000" stroke-miterlimit="10" width="40" height="40"/>
</g>
</svg>
